<?xml version="1.0" encoding="UTF-8" standalone="no"?>
<svg
   xmlns:dc="http://purl.org/dc/elements/1.1/"
   xmlns:cc="http://creativecommons.org/ns#"
   xmlns:rdf="http://www.w3.org/1999/02/22-rdf-syntax-ns#"
   xmlns:svg="http://www.w3.org/2000/svg"
   xmlns="http://www.w3.org/2000/svg"
   xmlns:sodipodi="http://sodipodi.sourceforge.net/DTD/sodipodi-0.dtd"
   xmlns:inkscape="http://www.inkscape.org/namespaces/inkscape"
   width="79.371902mm"
   height="77.381325mm"
   viewBox="0 0 79.371902 77.381325"
   version="1.1"
   id="svg8"
   sodipodi:docname="logo.svg"
   inkscape:version="1.0.2 (e86c870879, 2021-01-15)">
  <sodipodi:namedview
     pagecolor="#ffffff"
     bordercolor="#666666"
     borderopacity="1"
     objecttolerance="10"
     gridtolerance="10"
     guidetolerance="10"
     inkscape:pageopacity="0"
     inkscape:pageshadow="2"
     inkscape:window-width="1920"
     inkscape:window-height="1023"
     id="namedview8"
     showgrid="false"
     inkscape:zoom="2.2088124"
     inkscape:cx="149.99415"
     inkscape:cy="146.23242"
     inkscape:window-x="0"
     inkscape:window-y="0"
     inkscape:window-maximized="1"
     inkscape:current-layer="svg8"
     inkscape:document-rotation="0" />
  <defs
     id="defs2" />
  <metadata
     id="metadata5">
    <rdf:RDF>
      <cc:Work
         rdf:about="">
        <dc:format>image/svg+xml</dc:format>
        <dc:type
           rdf:resource="http://purl.org/dc/dcmitype/StillImage" />
        <dc:title />
      </cc:Work>
    </rdf:RDF>
  </metadata>
  <path
     style="fill:#ffffff;fill-opacity:1;stroke:none;stroke-width:0.0881063;stroke-linecap:round;stroke-dasharray:0.0881063, 0.08810630000000000;stop-color:#000000"
     d="M 22.297383,0.49877121 39.685953,0.53730406 57.07452,0.49877121 67.886042,14.117942 78.758047,27.688944 74.851103,44.632764 71.019624,61.594241 55.335661,69.104133 39.685953,76.683601 24.036242,69.104133 8.3528132,61.594241 4.5208004,44.632764 0.61385654,27.688944 11.485861,14.117942 Z"
     id="path849" />
  <path
     id="path12"
     style="fill:#db4a32;fill-opacity:1;stroke:none;stroke-width:0.0881063;stroke-linecap:round;stroke-dasharray:0.0881063, 0.0881063;stop-color:#000000"
     d="M 22.023979,4.1119141e-7 11.042737,13.832748 -4.528841e-7,27.616917 3.9687495,44.827237 7.8605031,62.055126 23.79028,69.682569 39.685951,77.381322 55.58162,69.682569 71.511397,62.055126 75.40315,44.827237 79.3719,27.616917 68.329163,13.832748 57.34792,4.1119141e-7 39.685951,0.03927516 Z M 22.896276,1.8107426 39.685951,1.8479483 56.475624,1.8107426 66.914777,14.960844 77.41233,28.064436 73.639948,44.424679 69.940433,60.801972 54.796654,68.053209 39.685951,75.371626 24.575245,68.053209 9.4319825,60.801972 5.7319513,44.424679 1.9595698,28.064436 12.457122,14.960844 Z" />
  <path
     id="Selection"
     d="m 25.87987,36.091477 c 1.247227,-1.35088 0.446077,-4.47391 -1.160063,-5.20041 -1.423439,-0.792981 -3.168035,-0.6956 -4.552626,-1.473546 -1.404251,-1.331421 -1.820579,-3.311113 -2.85833,-4.904542 -0.424582,-1.45764 -0.246379,-3.003569 -0.368105,-4.506254 0.136528,-2.399488 1.169635,-4.700071 2.701603,-6.523286 0.87954,-1.061013 2.158421,-1.746488 3.315787,-2.402126 1.415014,-1.404543 3.129607,-2.523077 5.070537,-3.049399 1.425371,-0.823082 2.368632,-0.206739 3.733684,-0.308405 1.853465,-0.07569 4.023009,0.04243 5.860745,0.779584 1.787741,0.436895 3.524086,1.244488 4.550037,2.852741 1.352099,1.631681 3.145039,2.398092 5.014519,3.059732 1.768658,0.81004 1.878427,2.893258 2.108636,4.546131 0.278985,1.230058 0.75055,2.411762 1.615547,3.317242 1.857045,0.797481 3.439186,2.113186 4.094392,4.070545 0.91917,2.058577 1.623637,4.405253 3.687705,5.658683 2.300975,2.01208 2.766265,5.13875 4.034075,7.76791 0.824499,2.2817 1.580444,4.59446 2.863031,6.67369 0.710215,1.87909 1.072457,3.86431 1.612407,5.78562 0.678062,1.17238 0.893463,2.48787 1.04634,3.79811 -0.34565,2.15335 -1.195961,-0.56635 -1.746455,-1.73144 -1.33516,-2.52314 -1.097452,-5.60172 -2.740773,-8.01418 -1.345535,-2.50748 -2.034032,-5.2844 -3.236425,-7.85697 -0.829189,-2.36058 -1.76148,-4.91948 -4.017286,-6.28089 -2.034009,-1.99581 -2.455697,-4.960586 -4.031496,-7.256476 -0.971991,-1.061182 -2.645571,-1.309708 -3.443584,-2.465627 -0.69882,-1.137435 -1.103057,-2.471179 -1.321309,-3.753277 0.11595,-1.784674 -1.129718,-3.83499 -2.907479,-3.943323 C 43.977713,14.573401 42.971271,14.308831 42.617921,13.442621 41.367687,12.957594 40.500574,11.74623 39.634903,10.735807 39.052239,10.088088 37.651397,9.707158 36.522275,9.360579 35.714644,9.009456 34.274693,8.778892 33.542181,8.729267 32.382661,8.095089 30.825176,9.524185 30.004299,8.584703 c -1.178571,-0.2044 -1.672409,0.392416 -2.743401,0.604353 -0.717631,0.394588 -1.740732,0.766957 -1.988679,1.255524 -0.879605,0.726711 -1.34711,1.60981 -2.320126,1.893216 -0.924842,0.09004 -1.224393,0.98904 -1.910685,1.112407 -1.243276,1.391722 -2.304808,3.297655 -2.453362,5.240321 -0.494301,1.522513 -0.07834,3.038985 -0.02039,4.734019 0.816848,1.342997 1.203176,2.85686 2.036601,4.171985 1.466523,1.539693 4.191659,2.639679 6.134575,1.298091 1.805778,-0.666041 3.644164,-1.603884 4.740272,-3.243716 -1.298582,-1.461371 0.433836,-3.860618 2.34685,-3.655239 0.793362,-0.683067 -0.479988,-3.23091 0.897697,-3.238282 0.595552,1.477239 -0.348151,3.732528 2.038712,3.774604 1.090458,1.007794 2.485023,1.861717 3.60575,2.396957 -2.331001,1.79387 -4.364297,-3.658983 -6.432368,-1.308292 -1.071075,1.00716 -1.235779,2.538151 -0.765711,3.853212 0.813164,1.651063 1.967149,3.149914 3.316676,4.388904 1.510614,0.48356 -0.141452,1.72586 -0.791889,2.42598 -1.529383,1.35719 -2.673423,3.38188 -4.907871,3.64584 -1.031104,0.35404 -2.04927,0.35836 -3.117781,0.32857 -1.757389,-0.18493 -5.058911,0.69584 -3.518348,2.9105 0.733601,1.69013 1.885852,3.23754 3.965758,3.27787 1.631728,-0.41184 3.96932,-2.90367 5.594818,-1.53888 -1.159017,0.17545 -4.814083,2.01555 -1.782423,1.64625 1.377553,-0.77688 2.934893,-0.28822 0.847905,0.52781 -0.903871,0.67036 -2.319497,0.43289 -3.081458,0.33659 -1.207338,-0.10366 -4.089525,-0.55071 -2.602595,1.80832 0.228834,1.11389 0.440771,2.23758 0.492333,3.37611 1.408958,0.2781 2.812214,0.9372 4.300959,0.86722 1.367381,0.10911 2.867721,-0.18675 4.123801,0.26542 -1.132214,0.90485 -2.857693,0.63573 -4.283937,0.67661 -1.463975,0.1384 -2.845514,-0.33121 -4.239152,-0.66576 -0.867678,1.0895 -1.01694,2.69433 -1.568439,3.98757 -0.974101,2.12497 -0.401476,4.75672 -1.129898,6.63956 -1.577137,0.2646 -1.357633,-2.33542 -1.182075,-3.49519 0.446417,-1.63544 -0.882051,-1.86762 0.421301,-3.68811 1.377025,-1.6573 0.872402,-3.93984 1.798702,-5.83784 -0.06499,-1.84465 -1.592171,-2.97941 -1.09115,-4.90997 -1.226046,-0.88435 -2.929653,-1.15289 -2.870197,-3.0906 -0.374704,-1.54201 0.757412,-3.04822 1.979711,-3.89573 0.570201,-0.76993 -0.165585,-4.70068 2.035085,-1.36943 z m 4.861216,-12.539738 c -1.555091,-0.790525 -2.681967,-2.821802 -3.545926,-4.253565 -0.434288,-1.107291 1.563925,-3.488531 1.66476,-1.882341 -2.87494,2.178 2.062373,3.863848 1.881166,6.135906 z m 1.767716,0.165723 c -1.055352,0.475697 -0.02533,1.153205 0,0 z m -0.718135,0.276203 c -0.151777,-0.06284 0.06287,0.15178 0,0 z m 14.859855,2.983028 c 0.633013,-2.500884 4.713782,-2.110802 5.841678,-0.06038 0.643313,1.428771 1.05398,3.006378 2.319498,3.969294 -0.873159,0.56892 -2.618113,0.50928 -3.733416,0.0875 -1.430826,-1.172279 -3.770171,-1.239462 -4.555919,-3.112539 -0.116093,-0.263134 -0.167418,-0.701146 0.128159,-0.883856 z m 2.264885,-0.441934 c -2.024964,0.07117 0.196103,3.032859 -0.386688,0.883857 0.343058,-0.231236 0.06882,-0.651926 0.386688,-0.883857 z m -16.351365,1.82296 c -0.07065,0.343675 0.278119,0.409277 0,0 z m -1.988679,0.276203 c -0.151777,-0.06294 0.06287,0.151774 0,0 z m 21.102099,0.110473 c -2.038456,0.431258 -0.119118,1.418252 0.645426,1.304267 -0.250613,-0.417515 -0.446388,-0.860774 -0.645426,-1.304267 z m -21.157339,0.05525 c -0.391434,1.016652 0.303595,2.909042 -1.33794,3.763582 0.149305,1.51122 -1.608509,3.65358 -0.809075,4.68996 1.321486,-0.0781 0.426227,-4.714 1.92605,-2.26654 0.851218,2.10796 2.299881,1.24035 3.382352,-0.30177 0.794218,-1.85396 -0.132979,-4.35839 -1.864741,-5.657159 -0.371874,-0.532787 -0.932331,0.360815 -1.296646,-0.228073 z m -0.331447,7.457552 c -0.763322,1.09496 0.788645,0.86111 0,0 z m -4.750735,0.9391 c -0.339182,-0.4095 -0.517368,0.28128 0,0 z"
     style="stroke-width:0.0846669" />
</svg>
